HIERARCHY
ROOT Hips
{
	OFFSET 0.000000 100.481300 0.000000
	CHANNELS 6 Xposition Yposition Zposition Xrotation Yrotation Zrotation 
	JOINT Spine
	{
		OFFSET -0.279200 12.230698 -2.892100
		CHANNELS 3 Xrotation Yrotation Zrotation
		JOINT Spine1
		{
			OFFSET -0.232667 10.192268 -1.242267
			CHANNELS 3 Xrotation Yrotation Zrotation
			JOINT Spine1_split
			{
				OFFSET -0.232667 10.192268 -1.242267
				CHANNELS 3 Xrotation Yrotation Zrotation
				JOINT Spine2
				{
					OFFSET -0.232667 10.192268 -1.242267
					CHANNELS 3 Xrotation Yrotation Zrotation
					JOINT Neck
					{
						OFFSET -0.418800 17.814194 8.416900
						CHANNELS 3 Xrotation Yrotation Zrotation
						JOINT Head
						{
							OFFSET 0.000000 7.031097 3.806800
							CHANNELS 3 Xrotation Yrotation Zrotation
							JOINT HeadTop_End
							{
								OFFSET 0.000000 24.646606 12.978600
								CHANNELS 3 Xrotation Yrotation Zrotation
								End Site
								{
									OFFSET 0.000000 0.000000 0.000000
								}
							}
						}
					}
					JOINT LeftShoulder
					{
						OFFSET 8.476499 7.247704 -3.868750
						CHANNELS 3 Xrotation Yrotation Zrotation
						JOINT LeftShoulder_split
						{
							OFFSET 8.476499 7.247704 -3.868750
							CHANNELS 3 Xrotation Yrotation Zrotation
							JOINT LeftArm
							{
								OFFSET 9.308998 -2.777710 0.208600
								CHANNELS 3 Xrotation Yrotation Zrotation
								JOINT LeftForeArm
								{
									OFFSET 29.972298 0.000000 0.000000
									CHANNELS 3 Xrotation Yrotation Zrotation
									JOINT LeftHand
									{
										OFFSET 26.026505 0.000000 0.000000
										CHANNELS 3 Xrotation Yrotation Zrotation
										JOINT LeftHandThumb1
										{
											OFFSET 12.240501 -7.147949 9.207150
											CHANNELS 3 Xrotation Yrotation Zrotation
											JOINT LeftHandThumb2
											{
												OFFSET 4.138618 -2.389435 2.389433
												CHANNELS 3 Xrotation Yrotation Zrotation
												JOINT LeftHandThumb3
												{
													OFFSET 2.726913 -1.574387 1.574386
													CHANNELS 3 Xrotation Yrotation Zrotation
													JOINT LeftHandThumb4
													{
														OFFSET 3.941010 -2.275345 2.275342
														CHANNELS 3 Xrotation Yrotation Zrotation
														End Site
														{
															OFFSET 0.000000 0.000000 0.000000
														}
													}
												}
											}
										}
										JOINT LeftHandIndex1
										{
											OFFSET 24.424698 -1.985611 5.953459
											CHANNELS 3 Xrotation Yrotation Zrotation
											JOINT LeftHandIndex2
											{
												OFFSET 6.426697 0.000000 0.000000
												CHANNELS 3 Xrotation Yrotation Zrotation
												JOINT LeftHandIndex3
												{
													OFFSET 5.337898 0.000000 0.000000
													CHANNELS 3 Xrotation Yrotation Zrotation
													JOINT LeftHandIndex4
													{
														OFFSET 4.409401 0.000000 0.000000
														CHANNELS 3 Xrotation Yrotation Zrotation
														End Site
														{
															OFFSET 0.000000 0.000000 0.000000
														}
													}
												}
											}
										}
										JOINT LeftHandMiddle1
										{
											OFFSET 23.810104 0.000000 0.000000
											CHANNELS 3 Xrotation Yrotation Zrotation
											JOINT LeftHandMiddle2
											{
												OFFSET 7.176498 0.000000 0.000000
												CHANNELS 3 Xrotation Yrotation Zrotation
												JOINT LeftHandMiddle3
												{
													OFFSET 6.774902 0.000000 0.000000
													CHANNELS 3 Xrotation Yrotation Zrotation
													JOINT LeftHandMiddle4
													{
														OFFSET 5.403328 0.000000 0.000000
														CHANNELS 3 Xrotation Yrotation Zrotation
														End Site
														{
															OFFSET 0.000000 0.000000 0.000000
														}
													}
												}
											}
										}
										JOINT LeftHandRing1
										{
											OFFSET 22.908401 -0.839279 -6.020567
											CHANNELS 3 Xrotation Yrotation Zrotation
											JOINT LeftHandRing2
											{
												OFFSET 6.337502 0.000000 0.000000
												CHANNELS 3 Xrotation Yrotation Zrotation
												JOINT LeftHandRing3
												{
													OFFSET 5.779297 0.000000 0.000000
													CHANNELS 3 Xrotation Yrotation Zrotation
													JOINT LeftHandRing4
													{
														OFFSET 4.965698 0.000000 0.000000
														CHANNELS 3 Xrotation Yrotation Zrotation
														End Site
														{
															OFFSET 0.000000 0.000000 0.000000
														}
													}
												}
											}
										}
										JOINT LeftHandPinky1
										{
											OFFSET 20.037003 -1.530319 -10.950146
											CHANNELS 3 Xrotation Yrotation Zrotation
											JOINT LeftHandPinky2
											{
												OFFSET 5.254700 0.000000 0.000000
												CHANNELS 3 Xrotation Yrotation Zrotation
												JOINT LeftHandPinky3
												{
													OFFSET 4.810204 0.000000 0.000000
													CHANNELS 3 Xrotation Yrotation Zrotation
													JOINT LeftHandPinky4
													{
														OFFSET 3.647202 0.000000 0.000000
														CHANNELS 3 Xrotation Yrotation Zrotation
														End Site
														{
															OFFSET 0.000000 0.000000 0.000000
														}
													}
												}
											}
										}
									}
								}
							}
						}
					}
					JOINT RightShoulder
					{
						OFFSET -7.570500 7.247704 -3.868750
						CHANNELS 3 Xrotation Yrotation Zrotation
						JOINT RightShoulder_split
						{
							OFFSET -7.570500 7.247704 -3.868750
							CHANNELS 3 Xrotation Yrotation Zrotation
							JOINT RightArm
							{
								OFFSET -9.308998 -2.777710 0.208500
								CHANNELS 3 Xrotation Yrotation Zrotation
								JOINT RightForeArm
								{
									OFFSET -29.972300 0.000000 0.000000
									CHANNELS 3 Xrotation Yrotation Zrotation
									JOINT RightHand
									{
										OFFSET -26.026505 0.000000 0.000000
										CHANNELS 3 Xrotation Yrotation Zrotation
										JOINT RightHandThumb1
										{
											OFFSET -12.240601 -7.148026 9.207092
											CHANNELS 3 Xrotation Yrotation Zrotation
											JOINT RightHandThumb2
											{
												OFFSET -4.138618 -2.389435 2.389433
												CHANNELS 3 Xrotation Yrotation Zrotation
												JOINT RightHandThumb3
												{
													OFFSET -2.726974 -1.574417 1.574421
													CHANNELS 3 Xrotation Yrotation Zrotation
													JOINT RightHandThumb4
													{
														OFFSET -3.941010 -2.275345 2.275343
														CHANNELS 3 Xrotation Yrotation Zrotation
														End Site
														{
															OFFSET 0.000000 0.000000 0.000000
														}
													}
												}
											}
										}
										JOINT RightHandIndex1
										{
											OFFSET -24.424698 -1.985657 5.953444
											CHANNELS 3 Xrotation Yrotation Zrotation
											JOINT RightHandIndex2
											{
												OFFSET -6.426697 0.000000 0.000000
												CHANNELS 3 Xrotation Yrotation Zrotation
												JOINT RightHandIndex3
												{
													OFFSET -5.337898 0.000000 0.000000
													CHANNELS 3 Xrotation Yrotation Zrotation
													JOINT RightHandIndex4
													{
														OFFSET -4.409401 0.000000 0.000000
														CHANNELS 3 Xrotation Yrotation Zrotation
														End Site
														{
															OFFSET 0.000000 0.000000 0.000000
														}
													}
												}
											}
										}
										JOINT RightHandMiddle1
										{
											OFFSET -23.810097 0.000000 0.000000
											CHANNELS 3 Xrotation Yrotation Zrotation
											JOINT RightHandMiddle2
											{
												OFFSET -7.176498 0.000000 0.000000
												CHANNELS 3 Xrotation Yrotation Zrotation
												JOINT RightHandMiddle3
												{
													OFFSET -6.774902 0.000000 0.000000
													CHANNELS 3 Xrotation Yrotation Zrotation
													JOINT RightHandMiddle4
													{
														OFFSET -5.403328 0.000000 0.000000
														CHANNELS 3 Xrotation Yrotation Zrotation
														End Site
														{
															OFFSET 0.000000 0.000000 0.000000
														}
													}
												}
											}
										}
										JOINT RightHandRing1
										{
											OFFSET -22.908302 -0.839325 -6.020576
											CHANNELS 3 Xrotation Yrotation Zrotation
											JOINT RightHandRing2
											{
												OFFSET -6.337502 0.000000 0.000000
												CHANNELS 3 Xrotation Yrotation Zrotation
												JOINT RightHandRing3
												{
													OFFSET -5.779297 0.000000 0.000000
													CHANNELS 3 Xrotation Yrotation Zrotation
													JOINT RightHandRing4
													{
														OFFSET -4.965698 0.000000 0.000000
														CHANNELS 3 Xrotation Yrotation Zrotation
														End Site
														{
															OFFSET 0.000000 0.000000 0.000000
														}
													}
												}
											}
										}
										JOINT RightHandPinky1
										{
											OFFSET -20.037003 -1.530334 -10.950259
											CHANNELS 3 Xrotation Yrotation Zrotation
											JOINT RightHandPinky2
											{
												OFFSET -5.254700 0.000000 0.000000
												CHANNELS 3 Xrotation Yrotation Zrotation
												JOINT RightHandPinky3
												{
													OFFSET -4.810204 0.000000 0.000000
													CHANNELS 3 Xrotation Yrotation Zrotation
													JOINT RightHandPinky4
													{
														OFFSET -3.647202 0.000000 0.000000
														CHANNELS 3 Xrotation Yrotation Zrotation
														End Site
														{
															OFFSET 0.000000 0.000000 0.000000
														}
													}
												}
											}
										}
									}
								}
							}
						}
					}
				}
			}
		}
	}
	JOINT LeftUpLeg
	{
		OFFSET 15.427100 -6.655098 0.678600
		CHANNELS 3 Xrotation Yrotation Zrotation
		JOINT LeftLeg
		{
			OFFSET 4.081073 -39.591068 13.024000
			CHANNELS 3 Xrotation Yrotation Zrotation
			JOINT LeftFoot
			{
				OFFSET -4.081074 -37.707932 -15.979700
				CHANNELS 3 Xrotation Yrotation Zrotation
				JOINT LeftToeBase
				{
					OFFSET 5.346399 -15.068900 20.645000
					CHANNELS 3 Xrotation Yrotation Zrotation
					JOINT LeftToe_End
					{
						OFFSET 2.754700 0.931300 11.300900
						CHANNELS 3 Xrotation Yrotation Zrotation
						End Site
						{
							OFFSET 0.000000 0.000000 0.000000
						}
					}
				}
			}
		}
	}
	JOINT RightUpLeg
	{
		OFFSET -15.569500 -6.655098 0.678600
		CHANNELS 3 Xrotation Yrotation Zrotation
		JOINT RightLeg
		{
			OFFSET -4.081825 -39.591045 13.023800
			CHANNELS 3 Xrotation Yrotation Zrotation
			JOINT RightFoot
			{
				OFFSET 4.081824 -37.707954 -15.979600
				CHANNELS 3 Xrotation Yrotation Zrotation
				JOINT RightToeBase
				{
					OFFSET -5.346400 -15.068900 20.645000
					CHANNELS 3 Xrotation Yrotation Zrotation
					JOINT RightToe_End
					{
						OFFSET -2.754700 0.931300 11.300900
						CHANNELS 3 Xrotation Yrotation Zrotation
						End Site
						{
							OFFSET 0.000000 0.000000 0.000000
						}
					}
				}
			}
		}
	}
}
MOTION
Frames: 4
Frame Time: 0.016667
3.045996 48.410858 127.498413 26.382017 -55.904719 33.004338 36.072678 -1.974472 -12.570192 -1.957401 5.375165 -0.991207 0.000000 0.000000 0.000000 2.116144 5.078855 -0.821979 -12.375892 22.130636 -4.641762 -6.246894 18.672305 -15.900095 -0.000002 -0.000000 -0.000001 5.941480 -18.519080 -1.957358 0.000000 0.000000 0.000000 -27.184727 20.945569 -31.616358 -81.078321 -81.172618 -70.319926 19.572887 -8.968060 11.330310 -2.637059 -7.745154 8.357711 4.850451 25.883350 0.310225 5.029093 28.059107 14.418574 0.000000 -0.000002 -0.000000 13.403492 -1.931351 -0.362588 -0.144261 0.314242 -46.537299 -0.125011 0.299266 -34.598955 -0.000001 0.000000 -0.000000 8.600808 -0.764857 -14.454871 0.337750 0.740993 -48.772906 0.367582 0.210475 -48.126589 0.000001 -0.000001 -0.000000 6.268062 2.785895 -30.963098 0.134951 0.420924 -52.428136 0.396851 0.853281 -49.786068 -0.000000 0.000003 -0.000000 -5.507718 7.394417 -31.738793 0.325629 0.344474 -72.129263 0.274079 0.283241 -55.734689 -0.000001 0.000000 -0.000001 0.012689 27.801549 18.707794 0.000000 0.000000 0.000000 -54.993893 -1.387950 14.818760 -31.712862 58.823030 27.684013 29.626707 11.680914 -21.865396 4.362872 -2.376070 -10.417854 6.382042 -22.873383 7.534691 4.855436 -25.932792 -12.746845 -0.000002 -0.000001 0.000001 12.580745 5.223933 8.328369 -0.320494 -0.269473 55.178544 -0.229788 -0.205174 38.884690 0.000002 -0.000000 0.000001 6.735575 -0.416807 21.668222 0.630583 -0.710903 59.162743 0.526166 -0.129084 49.030991 0.000002 0.000002 0.000002 3.077463 -6.824894 32.208700 0.532225 -0.321427 64.382183 0.525839 -0.784132 60.196977 -0.000000 0.000001 0.000001 -7.813631 -10.789249 40.442981 0.564488 -0.208638 85.786903 0.348604 -0.192166 50.601702 -0.000000 0.000001 -0.000002 -28.061421 -44.952849 70.218258 64.625570 -6.973372 -52.198826 -8.295351 3.307186 -34.537965 -0.606216 1.616886 0.678422 -0.000000 -0.000001 -0.000000 -74.427998 33.006930 -32.367983 93.973779 18.626805 6.508561 -26.327926 -7.882112 18.716076 -0.384469 -1.379029 -0.725540 0.000000 -0.000000 0.000000 
3.294207 48.626717 128.226105 28.050277 -56.350454 34.176228 35.755494 -2.309180 -13.999234 -2.211916 5.602698 -0.808055 0.000000 0.000000 0.000000 1.905239 5.369616 -0.299749 -12.094926 22.484185 -4.602856 -6.896206 18.777341 -15.089621 -0.000001 -0.000000 0.000000 6.664355 -18.263926 -2.232504 0.000000 0.000000 0.000000 -27.495669 17.707788 -32.135125 -65.949274 -80.866598 -55.485226 19.983575 -7.423050 10.194815 -2.565587 -7.754365 8.363823 4.988657 26.393938 0.484769 5.024895 28.382255 14.577727 -0.000000 -0.000002 -0.000000 13.409934 -1.900500 -2.024955 -0.142135 0.315774 -49.012304 -0.122617 0.301053 -37.263839 0.000003 0.000000 -0.000001 8.587730 -0.735827 -16.027768 0.347281 0.750555 -51.229390 0.381294 0.223166 -50.966919 0.000001 -0.000000 0.000000 6.254689 2.818124 -32.426036 0.146161 0.429329 -54.763565 0.412251 0.865585 -52.607490 0.000001 -0.000000 -0.000001 -5.551661 7.431822 -32.962408 0.336808 0.347420 -74.252496 0.287116 0.290975 -58.486343 0.000003 0.000001 0.000000 0.392897 28.446684 18.972628 0.000000 0.000000 0.000000 -54.816892 -0.739635 15.725256 -32.159526 59.955694 28.371971 30.216538 9.118568 -21.036110 4.934231 -2.758356 -10.624078 6.709297 -23.370553 7.689444 5.057486 -28.342862 -13.846361 0.000001 0.000003 0.000003 12.835070 4.880023 10.435491 -0.342462 -0.295544 58.867051 -0.249757 -0.219150 41.608840 0.000000 -0.000002 0.000000 6.540484 -0.366046 24.090055 0.670363 -0.689410 62.625724 0.555703 -0.116255 51.572194 0.000004 0.000001 0.000002 2.533742 -6.923160 34.344380 0.559769 -0.307385 67.256381 0.552938 -0.769925 63.039518 0.000002 -0.000000 -0.000001 -8.870827 -11.299471 42.195795 0.584062 -0.186666 88.957948 0.362400 -0.185831 52.472075 0.000004 0.000001 -0.000001 -27.165339 -44.516154 71.642797 65.011482 -7.343664 -53.464293 -9.099849 3.283019 -33.805922 -0.586282 1.599813 0.681666 0.000000 0.000000 0.000000 -74.971025 33.117477 -32.119371 93.003988 18.326584 6.296442 -25.619795 -7.501909 19.669188 -0.381450 -1.361497 -0.730227 0.000000 0.000001 -0.000000 
3.466631 49.010887 128.864502 29.094068 -56.600979 35.093929 35.086969 -2.598743 -15.466586 -2.135781 5.671947 -0.623131 0.000000 0.000000 0.000000 1.911757 5.457654 0.250404 -12.116935 22.696510 -4.358122 -7.303203 18.909088 -14.670555 0.000002 -0.000000 0.000000 7.124630 -18.651618 -2.187873 0.000000 0.000000 0.000000 -27.932339 15.768877 -32.151954 -52.503862 -79.963620 -42.362834 19.874056 -6.198299 8.772591 -2.494174 -7.763603 8.369861 5.113604 26.867031 0.645998 5.019999 28.690725 14.730193 0.000000 -0.000001 -0.000000 13.421742 -1.871655 -3.652790 -0.140172 0.317262 -51.493930 -0.120404 0.303000 -40.006119 -0.000002 -0.000000 0.000002 8.575916 -0.708629 -17.529998 0.357469 0.759489 -53.634300 0.396379 0.235100 -53.814910 -0.000000 0.000003 0.000003 6.241550 2.849649 -33.782993 0.157185 0.436992 -56.993356 0.428593 0.876629 -55.369697 0.000001 0.000001 0.000002 -5.595010 7.468738 -34.051153 0.347448 0.349662 -76.219768 0.300144 0.297593 -61.113439 0.000001 -0.000001 0.000001 0.481424 28.460039 19.320840 0.000000 0.000000 0.000000 -54.296234 -0.269318 17.138946 -33.555872 61.774758 30.127237 31.259556 6.241243 -19.766168 5.449428 -3.079944 -10.807722 7.007143 -23.827943 7.829303 5.207846 -30.639242 -14.907381 -0.000001 0.000000 0.000000 13.115573 4.577890 12.470369 -0.362176 -0.324235 62.492713 -0.269155 -0.235259 44.348155 -0.000001 -0.000001 -0.000000 6.340834 -0.331174 26.374436 0.707234 -0.664511 65.968836 0.584145 -0.100878 54.085840 -0.000001 0.000001 0.000001 2.011708 -7.073377 36.304771 0.584430 -0.291957 69.957516 0.578141 -0.753604 65.783321 -0.000006 0.000001 -0.000001 -9.826598 -11.857190 43.720007 0.600191 -0.164838 91.846394 0.375050 -0.178850 54.245547 0.000001 -0.000002 -0.000003 -26.346700 -44.376729 72.129940 65.388119 -7.287972 -54.440521 -9.859867 3.374415 -33.278864 -0.568251 1.582732 0.684760 0.000000 0.000001 -0.000000 -75.071360 32.913452 -32.163682 92.170343 17.861747 5.756406 -25.176748 -7.055392 20.467907 -0.378286 -1.344260 -0.734740 0.000000 0.000001 -0.000000 
3.700573 49.503983 129.477005 29.588164 -56.475368 35.298035 34.196735 -2.730556 -16.037124 -1.873223 5.586118 -0.555360 0.000000 0.000000 0.000000 2.077622 5.368873 0.484105 -12.370051 22.770481 -4.044473 -7.971460 19.199325 -14.250019 -0.000000 0.000000 0.000000 6.965535 -19.294366 -2.102320 0.000000 0.000000 0.000000 -28.134854 15.072510 -32.000526 -44.720858 -79.216937 -34.965924 19.735951 -4.859233 6.786330 -2.423062 -7.772814 8.375886 5.223501 27.295338 0.791263 5.014510 28.980226 14.873854 -0.000000 -0.000001 0.000000 13.438331 -1.845273 -5.224446 -0.138569 0.318787 -53.948864 -0.118366 0.305093 -42.787235 0.000001 0.000000 -0.000001 8.565229 -0.683843 -18.940743 0.367948 0.767635 -55.955420 0.412631 0.245960 -56.632220 0.000001 0.000001 0.000001 6.228809 2.879361 -35.013530 0.167722 0.443769 -59.086402 0.445534 0.886318 -58.035680 -0.000000 0.000001 0.000001 -5.635504 7.502920 -34.986193 0.357212 0.351383 -78.001266 0.312930 0.303152 -63.579424 -0.000000 0.000002 0.000001 0.326741 28.032102 19.689718 0.000000 0.000000 0.000000 -54.046061 0.106972 18.102727 -34.543128 63.125592 31.386396 32.050495 4.260152 -17.576670 5.901736 -3.333584 -10.969729 7.271121 -24.239508 7.950932 5.309779 -32.795215 -15.919965 -0.000000 -0.000000 0.000000 13.414725 4.320670 14.409770 -0.379313 -0.354843 66.014898 -0.287460 -0.253334 47.072349 0.000003 0.000000 -0.000002 6.140127 -0.310641 28.493893 0.740370 -0.636885 69.154415 0.611019 -0.083377 56.545787 -0.000002 -0.000001 -0.000002 1.519321 -7.265435 38.063032 0.606024 -0.275892 72.451846 0.601160 -0.735645 68.397050 -0.000003 -0.000002 0.000002 -10.670387 -12.435067 44.989589 0.613062 -0.144049 94.411601 0.386568 -0.171514 55.901734 -0.000002 -0.000001 -0.000001 -26.479808 -44.708537 71.785370 65.827178 -7.112246 -54.807316 -10.293230 3.424255 -32.686444 -0.553805 1.565673 0.686937 -0.000000 0.000002 -0.000000 -74.536659 32.249821 -32.992758 91.231021 16.871455 5.224285 -24.855914 -5.993304 21.564610 -0.375746 -1.327108 -0.740033 0.000000 0.000000 -0.000000 
